<?xml version="1.0" encoding="UTF-8" standalone="no"?>
<svg width="52px" height="55px" viewBox="0 0 52 55" version="1.1" xmlns="http://www.w3.org/2000/svg" xmlns:xlink="http://www.w3.org/1999/xlink" xmlns:sketch="http://www.bohemiancoding.com/sketch/ns">
    <!-- Generator: Sketch 3.2.2 (9983) - http://www.bohemiancoding.com/sketch -->
    <title>Imported Layers</title>
    <desc>Created with Sketch.</desc>
    <defs>
        <path id="path-1" d="M0,0 L51.878,0 L51.878,55 L0,55 L0,0 Z"></path>
    </defs>
    <g id="Page-1" stroke="none" stroke-width="1" fill="none" fill-rule="evenodd" sketch:type="MSPage">
        <g id="Artboard-1" sketch:type="MSArtboardGroup">
            <g id="Imported-Layers" sketch:type="MSLayerGroup">
                <mask id="mask-2" sketch:name="Clip 2" fill="white">
                    <use xlink:href="#path-1"></use>
                </mask>
                <g id="Clip-2"></g>
                <path d="M29.5728,50.7158 L26.4458,47.5888 C26.4378,47.5798 26.4318,47.5698 26.4238,47.5618 C26.1758,47.3128 25.7738,47.3128 25.5248,47.5598 L25.5238,47.5608 L22.3558,50.7288 L22.3558,50.7318 C22.3528,50.7338 22.3498,50.7358 22.3468,50.7378 C22.0978,50.9868 22.0978,51.3888 22.3468,51.6388 C22.3468,51.6388 22.3478,51.6388 22.3488,51.6398 L22.3488,51.6458 L25.5308,54.8288 L25.5398,54.8278 C25.7898,55.0618 26.1798,55.0588 26.4238,54.8148 C26.4248,54.8138 26.4248,54.8128 26.4258,54.8128 L29.6008,51.6378 C29.8488,51.3888 29.8488,50.9868 29.5998,50.7378 C29.5928,50.7308 29.5818,50.7238 29.5728,50.7158 L29.5728,50.7158 Z M42.1988,45.8388 L27.3238,30.9638 L42.1988,16.0888 C42.2038,16.0838 42.2088,16.0818 42.2138,16.0768 C42.4538,15.8368 42.4588,15.4548 42.2358,15.2048 L42.2398,15.1998 L41.7738,14.7338 L41.7708,14.7368 C41.7688,14.7338 41.7668,14.7308 41.7648,14.7288 C41.5158,14.4808 41.1138,14.4808 40.8648,14.7288 C40.8538,14.7408 40.8458,14.7538 40.8348,14.7668 L25.9808,29.6198 L11.1028,14.7428 C11.0988,14.7388 11.0958,14.7338 11.0928,14.7298 C10.8518,14.4888 10.4688,14.4838 10.2188,14.7068 L10.2148,14.7028 L9.7478,15.1688 L9.7508,15.1718 C9.7488,15.1738 9.7458,15.1758 9.7438,15.1778 C9.4948,15.4268 9.4948,15.8288 9.7438,16.0778 C9.7558,16.0888 9.7688,16.0968 9.7808,16.1078 L24.6368,30.9638 L9.7808,45.8198 C9.7688,45.8298 9.7558,45.8388 9.7438,45.8508 C9.5038,46.0908 9.4978,46.4738 9.7218,46.7238 L9.7178,46.7278 L10.1838,47.1948 L10.1858,47.1918 C10.1888,47.1938 10.1898,47.1958 10.1928,47.1988 C10.4408,47.4468 10.8428,47.4468 11.0918,47.1988 C11.0958,47.1948 11.0988,47.1898 11.1028,47.1848 L25.9808,32.3078 L40.8348,47.1608 C40.8448,47.1738 40.8538,47.1868 40.8648,47.1978 C41.1048,47.4388 41.4878,47.4448 41.7378,47.2208 L41.7418,47.2258 L42.2088,46.7588 L42.2058,46.7558 C42.2078,46.7538 42.2118,46.7518 42.2138,46.7498 C42.4618,46.5008 42.4628,46.0998 42.2138,45.8508 C42.2088,45.8468 42.2038,45.8438 42.1988,45.8388 L42.1988,45.8388 Z M5.1918,28.6538 C3.5148,27.9708 2.7488,27.3088 2.7488,26.3358 C2.7488,25.6728 3.3898,24.8858 4.5698,24.8858 C5.7088,24.8858 7.2828,25.9218 7.4478,26.0258 C7.6968,26.1908 8.0068,26.0258 8.1728,25.7768 L8.9588,24.5968 C9.1038,24.3898 9.0418,24.0378 8.8358,23.9128 C8.4218,23.6028 6.8068,22.5268 4.6948,22.5268 C1.4028,22.5268 0.0358,24.6588 0.0358,26.5018 C0.0358,28.9448 1.9828,30.1868 3.9288,30.9728 C5.6678,31.6768 6.5578,32.4028 6.5578,33.4578 C6.5578,34.3478 5.7498,35.0518 4.6738,35.0518 C3.3278,35.0518 1.6518,33.8298 1.5478,33.7678 C1.3618,33.6228 1.0098,33.6228 0.8438,33.9128 L0.0988,35.1958 C-0.0882,35.5278 0.0148,35.6308 0.2018,35.8178 C0.6148,36.2108 2.1478,37.4328 4.7568,37.4328 C7.6758,37.4328 9.5178,35.4658 9.5178,33.3328 C9.5178,30.6618 7.1998,29.4618 5.1918,28.6538 L5.1918,28.6538 Z M47.5518,28.6538 C45.8748,27.9708 45.1088,27.3088 45.1088,26.3358 C45.1088,25.6728 45.7498,24.8858 46.9308,24.8858 C48.0688,24.8858 49.6428,25.9218 49.8078,26.0258 C50.0568,26.1908 50.3668,26.0258 50.5328,25.7768 L51.3198,24.5968 C51.4648,24.3898 51.4018,24.0378 51.1958,23.9128 C50.7808,23.6028 49.1668,22.5268 47.0538,22.5268 C43.7628,22.5268 42.3968,24.6588 42.3968,26.5018 C42.3968,28.9448 44.3428,30.1868 46.2878,30.9728 C48.0278,31.6768 48.9178,32.4028 48.9178,33.4578 C48.9178,34.3478 48.1098,35.0518 47.0338,35.0518 C45.6878,35.0518 44.0108,33.8298 43.9068,33.7678 C43.7208,33.6228 43.3698,33.6228 43.2038,33.9128 L42.4588,35.1958 C42.2718,35.5278 42.3758,35.6308 42.5618,35.8178 C42.9758,36.2108 44.5078,37.4328 47.1168,37.4328 C50.0358,37.4328 51.8778,35.4658 51.8778,33.3328 C51.8778,30.6618 49.5598,29.4618 47.5518,28.6538 L47.5518,28.6538 Z M23.6908,8.3648 L25.9478,8.3648 C27.0238,8.3648 28.0588,9.1308 28.0588,10.1658 C28.0588,11.2418 27.2308,12.0498 26.1958,12.0498 L23.6908,12.0498 L23.6908,8.3648 Z M23.6908,2.4638 L25.9058,2.4638 C26.9618,2.4638 27.6868,3.1888 27.6868,4.2238 C27.6868,5.2588 26.9618,6.0868 25.9058,6.0868 L23.6908,6.0868 L23.6908,2.4638 Z M21.4138,14.4928 L26.4238,14.4928 C28.9498,14.4928 30.9378,12.8158 30.9378,10.4968 C30.9378,8.5918 29.3438,7.4738 28.2458,7.1218 C29.2188,6.6668 30.5228,5.4238 30.5228,3.8308 C30.5228,1.6558 28.6178,0.0008 26.1548,0.0008 L21.4138,0.0008 C21.1858,0.0008 21.0208,0.1868 21.0208,0.3938 L21.0208,14.0998 C21.0208,14.3058 21.1858,14.4928 21.4138,14.4928 L21.4138,14.4928 Z" id="Fill-1" fill="#1A171B" sketch:type="MSShapeGroup" mask="url(#mask-2)"></path>
            </g>
        </g>
    </g>
</svg>